# xmcd
#
# Track frame offsets: 
#        150
#        14470
#        33618
#        49950
#        69159
#        80349
#        99050
#        118667
#        133741
#        151144
#        168808
#        185081
#        193774
#
# Disc length: 2851 seconds
#
# Revision: 0
# Processed by: cddbd v1.5.2PL0 Copyright (c) Steve Scherf et al.
# Submitted via: ExactAudioCopyFreeDBPlugin 1.0
#
DISCID=a50b210d
DTITLE=山崎まさよし - FLOWERS
DYEAR=2013
DGENRE=Folk
TTITLE0=はじまりのDing Dong
TTITLE1=太陽の約束
TTITLE2=Redemption Song
TTITLE3=Higher Round
TTITLE4=#9 story
TTITLE5=アルタイルの涙
TTITLE6=星空ギター
TTITLE7=ネタバレシャッフル
TTITLE8=アフロディーテ
TTITLE9=Green Bird
TTITLE10=Flowers
TTITLE11=#9 story (reprise)
TTITLE12=道
EXTD=
EXTT0=
EXTT1=
EXTT2=
EXTT3=
EXTT4=
EXTT5=
EXTT6=
EXTT7=
EXTT8=
EXTT9=
EXTT10=
EXTT11=
EXTT12=
PLAYORDER=
